<svg version="1.2" xmlns="http://www.w3.org/2000/svg" viewBox="0 0 32 32" width="32" height="32">
	<title>image</title>
	<style>
		.s0 { opacity: 0;fill: #000000 } 
		.s1 { fill: #ffffff } 
	</style>
	<path id="Layer" class="s0" d="m0 0h32v32h-32z"/>
	<g id="Layer">
		<path id="Layer" class="s1" d="m22.3 2.7q-0.4 0.1-0.6 0.3l-3 3.1c-0.8-0.8-1.6-1.4-2.3-1.9-0.4-0.3-0.7-0.5-1.1-0.7-0.2 0-0.3-0.1-0.6-0.1-0.3 0-0.7 0-1 0.3l-5.1 5.2h0.1q-0.3 0.3-0.4 0.6v0.1q0 0 0 0 0 0.1 0 0.1l-1.2 6.9c0 0.2 0.3 0.7 1 1.5l-0.7 0.7c-0.9 0.9-1 2.2-0.3 3.2l-4.4 4.4 2.9 2.9 4.4-4.4c1 0.6 2.3 0.4 3.1-0.4l0.5-0.6c0.9 0.7 1.6 1.1 1.8 1.1l6.9-1.2q0 0 0.1 0c0.2 0 0.4 0 0.7-0.2l5.2-5.2c0.2-0.3 0.3-0.6 0.3-0.7q0-0.3 0-0.4c-0.1-0.2-0.2-0.4-0.2-0.5q-0.3-0.5-0.6-0.9-0.3-0.5-0.6-1c-0.2-0.2-0.3-0.5-0.7-0.7l-1.2 1.7c0 0 0.1 0.1 0.2 0.3 0.2 0.2 0.4 0.5 0.6 0.7q0.2 0.3 0.3 0.5l-4.2 4.1c-0.3-0.2-0.8-0.6-1.4-1.1-1.3-1-3-2.5-4.9-4.3-1.8-1.7-3.3-3.4-4.3-4.7-0.6-0.6-0.9-1.2-1.1-1.5l4.2-4.3c0.2 0.1 0.3 0.1 0.5 0.3 0.6 0.3 1.3 0.9 2.1 1.6l-1.9 1.9c-0.3 0.2-0.4 0.6-0.3 1 0.1 0.4 0.4 0.7 0.7 0.8 0.4 0.1 0.8-0.1 1.1-0.4l6.2-6.4c0.3-0.3 0.4-0.7 0.2-1.1-0.2-0.4-0.6-0.6-1-0.6zm-1.3 5.4l-1.5 1.5 1.5 1.4q1.2 1.1 2.1 2.2l-1.9 1.9c-0.3 0.3-0.5 0.7-0.4 1.1 0.1 0.3 0.4 0.6 0.8 0.7 0.4 0.1 0.8 0 1-0.3l6.4-6.3c0.3-0.3 0.4-0.8 0.2-1.2-0.2-0.4-0.6-0.6-1.1-0.6q-0.3 0.1-0.5 0.4l-3 2.9q-0.9-1.1-2.2-2.2z"/>
	</g>
</svg>