<svg version="1.2" xmlns="http://www.w3.org/2000/svg" viewBox="0 0 32 32" width="32" height="32">
	<title>image</title>
	<style>
		.s0 { opacity: 0;fill: #000000 } 
		.s1 { fill: #ffffff } 
	</style>
	<path id="Layer" class="s0" d="m0 0h32v32h-32z"/>
	<g id="Layer">
		<g id="Layer">
			<g id="Layer">
				<path id="Layer" class="s1" d="m13.3 15c0-1.9 1.6-3.5 3.6-3.5h7.8q-0.1-0.3-0.4-0.5l-1.2-1v-6.3c0-0.3-0.3-0.6-0.6-0.6h-3.2c-0.3 0-0.5 0.3-0.5 0.6v2.7l-4.2-3.4c-0.4-0.4-1-0.4-1.4 0l-10.1 8.2c-0.4 0.4-0.5 1.1-0.1 1.6 0.2 0.2 0.5 0.4 0.8 0.4q0.4 0 0.7-0.3l1.5-1.2v8.7c0 0.5 0.4 1 1 1h6.3z"/>
			</g>
			<g id="Layer">
				<path id="Layer" fill-rule="evenodd" class="s1" d="m27.2 28.5h-10.3c-0.6 0.1-1.1-0.1-1.4-0.5-0.4-0.4-0.6-0.8-0.6-1.4v-11.6c0-0.5 0.2-1 0.6-1.3 0.3-0.4 0.8-0.6 1.4-0.6h7.7q0.3 0 0.6 0.2l3.7 3.6q0.2 0.2 0.2 0.6v9.1c0 1.1-0.8 1.9-1.9 1.9zm-10.3-13.7q-0.2 0-0.2 0.1-0.1 0-0.1 0.1v11.6q0 0.1 0.1 0.2 0 0.1 0.2 0.1h10.3q0.1 0 0.2-0.1 0.1-0.1 0.1-0.2v-8.8l-3.2-3z"/>
			</g>
			<g id="Layer">
				<path id="Layer" class="s1" d="m21.3 24.8q-0.4-0.1-0.6-0.3l-1.8-1.8c-0.3-0.3-0.3-0.8 0-1.2 0.3-0.3 0.9-0.3 1.2 0l1 1.1 2.8-4.4c0.2-0.4 0.8-0.5 1.1-0.3 0.4 0.2 0.6 0.8 0.3 1.1l-3.3 5.3c-0.1 0.2-0.4 0.4-0.6 0.4z"/>
			</g>
		</g>
	</g>
</svg>