<svg xmlns="http://www.w3.org/2000/svg" xmlns:xlink="http://www.w3.org/1999/xlink" width="191.442" height="84" viewBox="0 0 191.442 84">
  <defs>
    <clipPath id="clip-path">
      <rect id="Rectangle_10" data-name="Rectangle 10" width="34" height="24" transform="translate(188 227)" fill="#fff"/>
    </clipPath>
  </defs>
  <g id="Logo_2" data-name="Logo 2" transform="translate(-19.693 -285)">
    
    <g id="Group_4" data-name="Group 4" transform="translate(-57.993 63.679)">
      <text id="S" transform="translate(180 284.321)" fill="#51504f" font-size="20" font-family="Poppins-Bold, Poppins" font-weight="700"><tspan x="0" y="0">S</tspan></text>
      <text id="G" transform="translate(155 284.321)" fill="#51504f" font-size="20" font-family="Poppins-Bold, Poppins" font-weight="700"><tspan x="0" y="0">G</tspan></text>
    </g>
    <g id="Group_11" data-name="Group 11">
      <path id="Path_23" data-name="Path 23" d="M66.434,304.394l-45.742,3.831,52.442.844Z" transform="translate(-1 41)" fill="#006ccc"/>
      <path id="Path_24" data-name="Path 24" d="M26.719,304.328l46.416,3.9-53.278.7Z" transform="translate(138 41)" fill="#006ccc"/>
      <g id="Rectangle_128" data-name="Rectangle 128" transform="translate(67.078 313.25)" fill="#006ccc" stroke-linecap="round">
        <path d="M 5.028997898101807 36.22341156005859 L 4.751135349273682 36.03768920898438 L -0.3488645851612091 32.62868881225586 L -0.9707396030426025 32.2130012512207 L -0.3488645851612091 31.79731369018555 L 47.73684692382813 -0.3446871042251587 L 48.01470947265625 -0.5304120779037476 L 48.29257202148438 -0.3446871042251587 L 96.16583251953125 31.65531349182129 L 96.78771209716797 32.07099914550781 L 96.16583251953125 32.48668670654297 L 91.06584930419922 35.89568710327148 L 90.78798675537109 36.08141326904297 L 90.5101318359375 35.89568710327148 L 48.01470947265625 7.491405010223389 L 5.306848049163818 36.03768920898438 L 5.028997898101807 36.22341156005859 Z" stroke="none"/>
        <path d="M 5.029005527496338 35.62200546264648 L 48.01471328735352 6.889993667602539 L 90.78797912597656 35.4799919128418 L 95.88796234130859 32.07099533081055 L 48.01471328735352 0.07099372893571854 L -0.07099458575248718 32.21300888061523 L 5.029005527496338 35.62200546264648 M 5.028992176055908 36.82483291625977 L 4.47328519821167 36.4533805847168 L -0.6267145872116089 33.04438018798828 L -1.870474576950073 32.21300888061523 L -0.6267145872116089 31.38163375854492 L 47.45899200439453 -0.7603796124458313 L 48.01471328735352 -1.131832957267761 L 48.57043075561523 -0.7603796124458313 L 96.44368743896484 31.23962020874023 L 97.68744659423828 32.07099533081055 L 96.44368743896484 32.90236663818359 L 91.34369659423828 36.31136703491211 L 90.78799438476563 36.68281936645508 L 90.23226928710938 36.31138229370117 L 48.01471328735352 8.092819213867188 L 5.584712028503418 36.45339202880859 L 5.028992176055908 36.82483291625977 Z" stroke="none" fill="#006ccc"/>
      </g>
      <g id="_14152272901636622119" data-name="14152272901636622119" transform="translate(57 307.242)">
        <path id="Path_12" data-name="Path 12" d="M34.406,10.432H33.87V9.9A1.075,1.075,0,0,0,32.8,8.824H31.727a1.613,1.613,0,0,0-1.608-1.608H26.9V4H25.831V7.216H23.687V5.072H22.615V7.216h-5.36V5.072H16.183V7.216H14.04V4H12.968V7.216H9.752A1.613,1.613,0,0,0,8.144,8.824H7.072A1.075,1.075,0,0,0,6,9.9V12.04a1.075,1.075,0,0,0,1.072,1.072H8.144a1.613,1.613,0,0,0,1.608,1.608H30.119a1.613,1.613,0,0,0,1.608-1.608H32.8A1.075,1.075,0,0,0,33.87,12.04V11.5h.536a.536.536,0,0,1,.536.536v4.288a.536.536,0,0,1-.536.536h-13.4A1.613,1.613,0,0,0,19.4,18.471v4.824h-.054a1.6,1.6,0,0,0-1.6,1.528L17.314,33.4a1.6,1.6,0,0,0,1.6,1.688h2.037a1.6,1.6,0,0,0,1.6-1.688l-.429-8.576a1.6,1.6,0,0,0-1.6-1.528h-.054V18.471a.536.536,0,0,1,.536-.536h13.4a1.613,1.613,0,0,0,1.608-1.608V12.04a1.613,1.613,0,0,0-1.608-1.608ZM8.144,12.04H7.072V9.9H8.144Zm22.511,1.072a.536.536,0,0,1-.536.536H9.752a.536.536,0,0,1-.536-.536V11.1a2.547,2.547,0,0,1,.809.332,3.344,3.344,0,0,0,1.871.52,3.344,3.344,0,0,0,1.871-.52,2.315,2.315,0,0,1,1.34-.381,2.353,2.353,0,0,1,1.351.381,3.615,3.615,0,0,0,3.736,0,2.569,2.569,0,0,1,2.691,0,3.625,3.625,0,0,0,3.741,0,2.577,2.577,0,0,1,2.7,0,3.4,3.4,0,0,0,1.335.482ZM32.8,12.04H31.727V9.9H32.8Z" transform="translate(0 -0.928)" fill="#006ccc"/>
        <path id="Path_13" data-name="Path 13" d="M32.072,2H31V5.216h1.072Z" transform="translate(-11.601 0)" fill="#006ccc"/>
        <path id="Path_14" data-name="Path 14" d="M38.072,2H37V3.072h1.072Z" transform="translate(-14.385 0)" fill="#006ccc"/>
        <path id="Path_15" data-name="Path 15" d="M50.072,6H49V7.072h1.072Z" transform="translate(-19.953 -1.856)" fill="#006ccc"/>
        <path id="Path_16" data-name="Path 16" d="M50.072,2H49V3.072h1.072Z" transform="translate(-19.953 0)" fill="#006ccc"/>
        <path id="Path_17" data-name="Path 17" d="M26.072,2H25V3.072h1.072Z" transform="translate(-8.817 0)" fill="#006ccc"/>
        <path id="Path_18" data-name="Path 18" d="M14.072,6H13V7.072h1.072Z" transform="translate(-3.248 -1.856)" fill="#006ccc"/>
        <path id="Path_19" data-name="Path 19" d="M14.072,2H13V3.072h1.072Z" transform="translate(-3.248 0)" fill="#006ccc"/>
      </g>
      <path id="Path_25" data-name="Path 25" d="M14.942,25.912V14.876l2.573-3.5a1.1,1.1,0,0,0,.169-.958L15.416,2.66h-4.4L8.746,10.417a1.1,1.1,0,0,0,.169.958l2.573,3.5V25.912H8.7L9.462,42.4a3.756,3.756,0,0,0,7.5,0l.76-16.486Z" transform="translate(88.572 282.34)" fill="#006ccc"/>
      <g id="Mask_Group_2" data-name="Mask Group 2" transform="translate(-53.993 88.321)" clip-path="url(#clip-path)">
        <path id="Path_26" data-name="Path 26" d="M77.482,2.692a.243.243,0,0,0-.362.212v5.6a1.378,1.378,0,0,1-1.378,1.378H71.278A1.378,1.378,0,0,1,69.9,8.505V2.9a.243.243,0,0,0-.362-.212,8.217,8.217,0,0,0,.578,14.673V36.528a3.444,3.444,0,0,0,3.454,3.455,3.4,3.4,0,0,0,3.336-3.394V17.365a8.217,8.217,0,0,0,.578-14.673Zm-2.618,33.9a1.354,1.354,0,1,1-2.709,0v-18.6a8.261,8.261,0,0,0,2.709,0Z" transform="translate(130.085 224.018)" fill="#006ccc"/>
      </g>
      <g id="x33_3_Hammer_x2Cconstruction_tools_x2Ctools_and_utensils_x2Chome_repair_x2C_carpentry_tools" transform="translate(89.647 294.79) rotate(-48)">
        <g id="Group_2" data-name="Group 2" transform="translate(1 24.883)">
          <g id="XMLID_898_" transform="translate(0 0)">
            <g id="XMLID_899_">
              <path id="XMLID_904_" d="M197.219,35.052,195.567,33.4l-.246.246a1.74,1.74,0,0,1-2.461-2.461l.246-.246-4.43-4.43a15.479,15.479,0,0,0-6.358-1.6,16.2,16.2,0,0,0-6.2.853c.326.006,4.058.13,5.939,3.15a5.347,5.347,0,0,1,.714,3.5l4.43,4.43.246-.246a1.74,1.74,0,0,1,2.461,2.461l-.246.246,1.651,1.651a2.088,2.088,0,0,0,2.953,0l2.953-2.953A2.088,2.088,0,0,0,197.219,35.052Z" transform="translate(-164.763 -24.883)" fill="#006ccc"/>
              <rect id="XMLID_903_" width="1.488" height="4.873" transform="translate(12.739 13.786) rotate(-45)" fill="#006ccc"/>
              <rect id="XMLID_902_" width="4.065" height="4.873" transform="translate(14.708 11.817) rotate(-45)" fill="#006ccc"/>
              <rect id="XMLID_901_" width="4.272" height="4.873" transform="translate(8.801 17.724) rotate(-45)" fill="#006ccc"/>
              <path id="XMLID_900_" d="M1.713,319.548a2.436,2.436,0,0,0,0,3.445h0a2.436,2.436,0,0,0,3.445,0l7.171-7.171-3.445-3.445Z" transform="translate(-1 -293.736)" fill="#006ccc"/>
            </g>
          </g>
        </g>
      </g>
    </g>
  </g>
</svg>